<svg xmlns="http://www.w3.org/2000/svg" viewBox="0 0 330.37 50.25">
  <defs>
    <style>
      .\33 d4abe27-d94b-4a70-aac8-16e41eb08880 {
        fill: #222222;
      }
    </style>
  </defs>
  <title>Ресурс 1</title>
  <g id="be80869d-022d-48cf-a4bb-e5a1c7faae2e" data-name="Слой 2">
    <g id="51c4b0da-fc6f-4299-9765-a1c2e57ed92e" data-name="Слой 1">
      <g>
        <g>
          <path class="3d4abe27-d94b-4a70-aac8-16e41eb08880" d="M29.2,8.54q-7.28-.65-13-.65-7,0-7,4.69a4.06,4.06,0,0,0,1.34,3.14,16.78,16.78,0,0,0,3.12,2.23l8.92,5a20.46,20.46,0,0,1,7,5.74,13,13,0,0,1,2.21,7.74,13.48,13.48,0,0,1-2,7.29,12.56,12.56,0,0,1-5.88,4.87,24,24,0,0,1-9.52,1.68A58.54,58.54,0,0,1,6,49.7q-3.78-.55-4.2-1a1.37,1.37,0,0,1-.42-.94V43a1.21,1.21,0,0,1,.37-.89,1.21,1.21,0,0,1,.89-.37h.13q1.88.23,5.82.45t5.92.23q4,0,5.82-1.36t1.84-4.62A4.53,4.53,0,0,0,20.85,33a16.71,16.71,0,0,0-3-2.33l-10-6A18,18,0,0,1,1.89,19.5,12.12,12.12,0,0,1,0,12.58Q0,0,16.55,0a74.53,74.53,0,0,1,8.07.5,22,22,0,0,1,5.19.89,1.19,1.19,0,0,1,.65,1.07V7.34q0,1.2-1.13,1.2Z"/>
          <path class="3d4abe27-d94b-4a70-aac8-16e41eb08880" d="M86.27,13.71v.19l-6,30.46q-.71,3.52-2,4.54a6.26,6.26,0,0,1-3.91,1H72.57a8.12,8.12,0,0,1-2.34-.31,5,5,0,0,1-1.78-.94,5.55,5.55,0,0,1-1.29-1.58,8.43,8.43,0,0,1-.82-2.18L61,24.41c0-.17-.1-.26-.16-.26s-.15.09-.19.26l-5.3,20.5a7.82,7.82,0,0,1-1.18,2.76,5,5,0,0,1-2,1.68,7.28,7.28,0,0,1-3,.57H47.35a6.11,6.11,0,0,1-3.93-1.05q-1.28-1.05-2-4.51l-6-30.46v-.19a1.33,1.33,0,0,1,1.33-1.33h6.43q1,0,1.2,1.2l4.17,28q.1.94.32.94t.45-.94L53,26.51q2-7.86,2.3-8.63a1.94,1.94,0,0,1,1-1.08,5.75,5.75,0,0,1,2.18-.31h4.62a9,9,0,0,1,1.6.11,2.15,2.15,0,0,1,1,.45,2.61,2.61,0,0,1,.68,1q.27.61,1.31,4.82l4.62,18.75q.19.94.45.94t.36-.94l4.17-28q.13-1.2,1.16-1.2h6.43a1.33,1.33,0,0,1,1.33,1.33Z"/>
        </g>
        <g>
          <path class="3d4abe27-d94b-4a70-aac8-16e41eb08880" d="M121.86,32.43q0,1.68-1.33,1.68H99v.19a9.75,9.75,0,0,0,1.81,5.95q1.81,2.46,6.11,2.46,3.2,0,6.37-.23l5.82-.45h.19q1.2,0,1.2,1V47.4q0,1.29-.65,1.54a33.42,33.42,0,0,1-4.19.78,65.66,65.66,0,0,1-9.39.53A16.15,16.15,0,0,1,94.78,46q-4.58-4.27-4.58-12.35V28.74q0-7.86,4.22-12.34t11.69-4.48q7.34,0,11.54,4.56t4.2,12.25Zm-8.79-4.56v-.26a8.75,8.75,0,0,0-1.91-6,6.37,6.37,0,0,0-5-2.18A6.54,6.54,0,0,0,101,21.65a8.66,8.66,0,0,0-1.94,6v.26Z"/>
          <path class="3d4abe27-d94b-4a70-aac8-16e41eb08880" d="M159.89,32.43q0,1.68-1.33,1.68H137v.19a9.75,9.75,0,0,0,1.81,5.95q1.81,2.46,6.11,2.46,3.2,0,6.37-.23l5.82-.45h.19q1.2,0,1.2,1V47.4q0,1.29-.65,1.54a33.42,33.42,0,0,1-4.19.78,65.66,65.66,0,0,1-9.39.53A16.15,16.15,0,0,1,132.81,46q-4.58-4.27-4.58-12.35V28.74q0-7.86,4.22-12.34t11.69-4.48q7.34,0,11.54,4.56t4.2,12.25Zm-8.79-4.56v-.26a8.75,8.75,0,0,0-1.91-6,6.37,6.37,0,0,0-5-2.18A6.54,6.54,0,0,0,139,21.65a8.66,8.66,0,0,0-1.94,6v.26Z"/>
        </g>
        <path class="3d4abe27-d94b-4a70-aac8-16e41eb08880" d="M186.64,48.6a1.18,1.18,0,0,1-.31.82,4.92,4.92,0,0,1-2.28.58,27.19,27.19,0,0,1-3.17.24q-6.69,0-8.62-2.41t-1.92-8.1V18.95q-6.24-.94-6.53-1a1.46,1.46,0,0,1-.65-.4,1.13,1.13,0,0,1-.36-.86v-3a1.33,1.33,0,0,1,1.33-1.33h6.21V7a1.13,1.13,0,0,1,.39-.89A6,6,0,0,1,173,5.4l4.82-.84h.26q1.07,0,1.07,1v6.82h5.95a1.33,1.33,0,0,1,1.33,1.33v3.91a1.32,1.32,0,0,1-1.33,1.33h-5.95V39.74a10.1,10.1,0,0,0,.27,2.94q.27.74,2.31.74h3.49q1.39,0,1.39,1Z"/>
        <g>
          <path class="3d4abe27-d94b-4a70-aac8-16e41eb08880" d="M221.21,48.34a1.25,1.25,0,0,1-.36.78q-.36.42-4.75.71t-7.6.29q-7.73,0-12-5.22t-4.25-15.37V20.79a29.91,29.91,0,0,1,1.89-11.33,14.34,14.34,0,0,1,5.58-6.94A16.07,16.07,0,0,1,208.5.19q3.88,0,7.5.29t4.12.4a1.59,1.59,0,0,1,.79.4.93.93,0,0,1,.29.68v.81q0,.81-.87.81h-.39A100.9,100.9,0,0,0,208.5,3q-6.4,0-9.86,4.53t-3.46,13.29v8.73q0,9.25,3.64,13.53a12.07,12.07,0,0,0,9.68,4.28q2.85,0,5.88-.19l5.56-.39h.39q.87,0,.87.78Z"/>
          <path class="3d4abe27-d94b-4a70-aac8-16e41eb08880" d="M232.07,48.47a1.31,1.31,0,0,1-.32.89,1,1,0,0,1-.81.37h-.65a1,1,0,0,1-.81-.37,1.31,1.31,0,0,1-.32-.89V1.78a1.31,1.31,0,0,1,.32-.89,1,1,0,0,1,.81-.37h.65a1,1,0,0,1,.81.37,1.31,1.31,0,0,1,.32.89Z"/>
        </g>
        <g>
          <path class="3d4abe27-d94b-4a70-aac8-16e41eb08880" d="M267.54,31.4a1.27,1.27,0,0,1-1.26,1.26H243.91V34q0,6.79,2.76,10.14t9.2,3.35a36.85,36.85,0,0,0,5.92-.45l4.3-.71q1,0,1,.91v.48a1.05,1.05,0,0,1-.52,1,20.91,20.91,0,0,1-4.12.82,45.31,45.31,0,0,1-6.58.53Q241,50.12,241,34v-4.4q0-7,3.49-11.43t9.86-4.38q6.43,0,9.81,4.09t3.38,11.66ZM264.63,30v-.42q0-6.76-2.52-10t-7.76-3.2q-5.11,0-7.78,3.41t-2.67,9.81V30Z"/>
          <path class="3d4abe27-d94b-4a70-aac8-16e41eb08880" d="M295.89,48.4a1.33,1.33,0,0,1-1.33,1.33h-.32a1.32,1.32,0,0,1-1.33-1.33V46.75a23.64,23.64,0,0,1-11.25,3.36,10,10,0,0,1-7.45-2.72q-2.7-2.72-2.7-7.92v-.87q0-5.46,3.93-7.82t12.43-2.36H293V26q0-5.27-1.81-7.44t-6.53-2.17q-2.46,0-4.82.19l-4.59.39H275q-1.26,0-1.26-1v-.42a.92.92,0,0,1,.53-.91,16.75,16.75,0,0,1,3.56-.57,68.31,68.31,0,0,1,6.84-.31q5.72,0,8.49,2.85T295.89,26ZM293,44.17V31h-5.11q-7.34,0-10.38,1.65t-3,6v.87q0,8.05,7.21,8.05A24,24,0,0,0,293,44.17Z"/>
        </g>
        <path class="3d4abe27-d94b-4a70-aac8-16e41eb08880" d="M330.37,48.47a1.27,1.27,0,0,1-1.26,1.26h-.49a1.08,1.08,0,0,1-.82-.37,1.27,1.27,0,0,1-.34-.89v-22q0-10.06-9-10.06A24.71,24.71,0,0,0,308,19.14V48.47a1.24,1.24,0,0,1-.37.87,1.16,1.16,0,0,1-.86.39h-.42a1.33,1.33,0,0,1-1.26-1.26v-33q0-1.33,1.2-1.33h.55q1.16,0,1.16,1.33v1.07a24.88,24.88,0,0,1,10.67-2.72q5.5,0,8.58,3.25t3.09,9.39Z"/>
      </g>
    </g>
  </g>
</svg>
